<svg width="378" height="84" viewBox="0 0 378 84" fill="none" xmlns="http://www.w3.org/2000/svg">
<rect width="378" height="84" rx="14" fill="#121213"/>
<path d="M129.085 58.91C127.568 58.91 126.483 58.4783 125.83 57.615C125.177 56.7283 124.85 55.4333 124.85 53.73C124.85 52.0267 125.398 48.1067 126.495 41.97H125.935C124.512 43.8367 123.333 46.065 122.4 48.655C121.467 51.245 120.895 53.5783 120.685 55.655C119.542 56.7283 118.223 57.265 116.73 57.265C116.123 57.265 115.587 57.055 115.12 56.635C114.677 56.1917 114.233 55.4333 113.79 54.36C112.927 52.19 112.308 48.06 111.935 41.97H111.375C110.232 46.9867 109.66 50.5217 109.66 52.575C109.66 54.6283 110.01 56.215 110.71 57.335C109.31 58.385 107.852 58.91 106.335 58.91C104.818 58.91 103.733 58.4783 103.08 57.615C102.427 56.7283 102.1 55.4217 102.1 53.695C102.1 51.945 102.835 47.01 104.305 38.89L102.45 35.145C105.087 33.4417 107.49 32.59 109.66 32.59C110.617 32.59 111.422 32.695 112.075 32.905C112.752 33.0917 113.393 33.465 114 34.025C114.63 34.585 115.143 35.3667 115.54 36.37C116.45 38.6333 117.103 41.935 117.5 46.275H117.92C119.133 42.705 120.813 39.6367 122.96 37.07C124.127 35.6933 125.515 34.6083 127.125 33.815C128.758 33.0217 130.52 32.625 132.41 32.625C134.207 32.625 135.105 33.71 135.105 35.88C135.105 36.6033 134.65 39.2983 133.74 43.965C132.853 48.6083 132.41 51.3733 132.41 52.26C132.41 54.5233 132.76 56.215 133.46 57.335C132.06 58.385 130.602 58.91 129.085 58.91ZM147.885 57.3C146.788 57.6967 145.691 57.895 144.595 57.895C143.498 57.895 142.576 57.5683 141.83 56.915C141.083 56.2617 140.651 55.375 140.535 54.255C140.418 53.135 140.313 51.5133 140.22 49.39C140.126 47.2433 140.033 45.7267 139.94 44.84C139.636 41.8767 138.703 39.765 137.14 38.505C138.236 37.5017 139.613 37 141.27 37C142.18 37 142.973 37.245 143.65 37.735C144.326 38.2017 144.863 38.8317 145.26 39.625C145.68 40.395 146.018 41.3983 146.275 42.635C146.671 44.6883 146.87 47.465 146.87 50.965C146.87 51.8283 146.835 52.8433 146.765 54.01H148.795C151.198 47.5233 152.4 43.1017 152.4 40.745C152.4 39.9517 152.225 39.205 151.875 38.505C153.508 37.5017 154.931 37 156.145 37C158.408 37 159.54 38.3067 159.54 40.92C159.54 42.9967 158.583 46.6483 156.67 51.875C156.32 52.8317 156.121 53.3917 156.075 53.555C153.111 62.0017 148.9 66.225 143.44 66.225C141.783 66.225 140.418 65.8633 139.345 65.14C138.271 64.44 137.735 63.5067 137.735 62.34C137.735 61.1967 138.166 59.995 139.03 58.735C140.15 60.3217 141.55 61.115 143.23 61.115C144.186 61.115 145.073 60.8 145.89 60.17C146.73 59.54 147.395 58.5833 147.885 57.3ZM170.471 50.335C170.331 51.175 170.261 51.8167 170.261 52.26C170.261 54.5233 170.611 56.215 171.311 57.335C169.911 58.385 168.452 58.91 166.936 58.91C165.419 58.91 164.334 58.4783 163.681 57.615C163.027 56.7283 162.701 55.4217 162.701 53.695C162.701 51.945 163.436 47.01 164.906 38.89L163.051 35.145C165.687 33.4417 168.091 32.59 170.261 32.59C170.867 32.59 171.532 32.7067 172.256 32.94C172.979 33.15 173.492 33.395 173.796 33.675C175.522 32.9983 177.121 32.66 178.591 32.66C180.784 32.66 182.511 33.43 183.771 34.97C185.054 36.4867 185.696 38.33 185.696 40.5C185.696 43.1133 184.751 45.4467 182.861 47.5C181.951 48.5033 180.726 49.3083 179.186 49.915C177.646 50.5217 176.071 50.825 174.461 50.825C172.874 50.825 171.544 50.6617 170.471 50.335ZM171.136 46.345C171.462 46.415 171.801 46.45 172.151 46.45C173.644 46.45 174.974 45.925 176.141 44.875C177.307 43.825 177.891 42.53 177.891 40.99C177.891 39.9167 177.576 39.0067 176.946 38.26C176.339 37.5133 175.476 37.14 174.356 37.14C173.889 37.14 173.352 37.2333 172.746 37.42C172.279 40.6167 171.742 43.5917 171.136 46.345ZM204.518 39.66C205.825 39.66 206.945 40.185 207.878 41.235C208.835 42.285 209.313 43.8133 209.313 45.82C209.313 47.8033 208.963 49.6467 208.263 51.35C207.563 53.03 206.642 54.4067 205.498 55.48C204.355 56.5533 203.06 57.3933 201.613 58C200.167 58.5833 198.685 58.875 197.168 58.875C194.112 58.875 191.697 58.035 189.923 56.355C188.15 54.675 187.263 52.4467 187.263 49.67C187.263 45.9133 188.465 42.8683 190.868 40.535C193.295 38.1783 196.375 37 200.108 37C200.948 37 201.788 37.0933 202.628 37.28C202.885 38.05 203.025 38.925 203.048 39.905C203.538 39.7417 204.028 39.66 204.518 39.66ZM200.213 44.525C200.213 43.8717 200.365 43.1367 200.668 42.32C200.995 41.5033 201.508 40.85 202.208 40.36C199.128 41.0133 197.005 42.2617 195.838 44.105C194.835 45.6917 194.333 47.325 194.333 49.005C194.333 50.685 194.672 52.0383 195.348 53.065C196.048 54.0683 196.935 54.57 198.008 54.57C200.388 54.57 202.068 53.0183 203.048 49.915C201.158 48.7483 200.213 46.9517 200.213 44.525ZM223.798 41.655C222.935 41.9117 222.246 42.285 221.733 42.775C221.22 43.2417 220.765 43.9183 220.368 44.805C224.311 45.3883 227.088 46.2283 228.698 47.325C230.308 48.4217 231.113 49.985 231.113 52.015C231.113 53.2983 230.751 54.4183 230.028 55.375C229.305 56.3083 228.395 57.02 227.298 57.51C225.151 58.42 223.04 58.875 220.963 58.875C215.06 58.875 212.108 57.6033 212.108 55.06C212.108 53.7767 212.68 52.4933 213.823 51.21C214.406 52.0267 215.281 52.7267 216.448 53.31C217.638 53.8933 218.793 54.185 219.913 54.185C221.85 54.185 223.016 53.3333 223.413 51.63C219.866 51.21 217.3 50.4167 215.713 49.25C214.126 48.0833 213.333 46.4383 213.333 44.315C213.333 42.635 213.881 41.2233 214.978 40.08C216.098 38.9367 217.475 38.1433 219.108 37.7C220.765 37.2333 222.62 37 224.673 37C226.75 37 228.453 37.3967 229.783 38.19C231.136 38.96 231.813 39.905 231.813 41.025C231.813 42.145 231.416 43.0083 230.623 43.615C229.853 44.2217 229.001 44.525 228.068 44.525C227.158 44.525 226.318 44.28 225.548 43.79C224.801 43.3 224.218 42.5883 223.798 41.655ZM235.543 45.365C235.38 44.7117 235.298 44.105 235.298 43.545C235.298 42.4017 235.637 41.5383 236.313 40.955C236.99 40.3717 237.865 40.08 238.938 40.08C238.938 38.8667 238.623 37.5483 237.993 36.125C239.137 35.285 240.175 34.655 241.108 34.235C242.065 33.7917 243.068 33.57 244.118 33.57C245.168 33.57 245.892 33.7683 246.288 34.165C246.708 34.5383 246.918 35.1217 246.918 35.915C246.918 36.7083 246.755 37.945 246.428 39.625C247.362 39.485 248.307 39.2867 249.263 39.03C249.427 39.52 249.508 40.15 249.508 40.92C249.508 41.69 249.205 42.4133 248.598 43.09C248.015 43.7433 247.152 44.07 246.008 44.07H245.483C244.643 47.8733 244.223 50.8017 244.223 52.855C244.223 54.9083 244.585 56.3433 245.308 57.16C244.002 58.3033 242.613 58.875 241.143 58.875C239.673 58.875 238.612 58.4433 237.958 57.58C237.328 56.6933 237.013 55.3283 237.013 53.485C237.013 52.365 237.422 49.425 238.238 44.665C237.305 44.8283 236.407 45.0617 235.543 45.365ZM262.934 41.655C262.07 41.9117 261.382 42.285 260.869 42.775C260.355 43.2417 259.9 43.9183 259.504 44.805C263.447 45.3883 266.224 46.2283 267.834 47.325C269.444 48.4217 270.249 49.985 270.249 52.015C270.249 53.2983 269.887 54.4183 269.164 55.375C268.44 56.3083 267.53 57.02 266.434 57.51C264.287 58.42 262.175 58.875 260.099 58.875C254.195 58.875 251.244 57.6033 251.244 55.06C251.244 53.7767 251.815 52.4933 252.959 51.21C253.542 52.0267 254.417 52.7267 255.584 53.31C256.774 53.8933 257.929 54.185 259.049 54.185C260.985 54.185 262.152 53.3333 262.549 51.63C259.002 51.21 256.435 50.4167 254.849 49.25C253.262 48.0833 252.469 46.4383 252.469 44.315C252.469 42.635 253.017 41.2233 254.114 40.08C255.234 38.9367 256.61 38.1433 258.244 37.7C259.9 37.2333 261.755 37 263.809 37C265.885 37 267.589 37.3967 268.919 38.19C270.272 38.96 270.949 39.905 270.949 41.025C270.949 42.145 270.552 43.0083 269.759 43.615C268.989 44.2217 268.137 44.525 267.204 44.525C266.294 44.525 265.454 44.28 264.684 43.79C263.937 43.3 263.354 42.5883 262.934 41.655Z" fill="#00B94A"/>
</svg>
